# xmcd
#
# Track frame offsets:
#	150
#	17460
#	41635
#	70535
#	91575
#	115742
#	140272
#	162477
#	181822
#	204852
#	217627
#
# Disc length: 3201 seconds
#
# Revision: 1
# Processed by: cddbd v1.5.1PL0 Copyright (c) Steve Scherf et al.
# Submitted via: audiograbber 1.83.01
#
DISCID=7c0c7f0b
DTITLE=Sarasota Slim - Boney Fingers
DYEAR=2001
DGENRE=Blues
TTITLE0=I'M Gonna Get You
TTITLE1=Booty Boomerang - (Send)
TTITLE2=Out-O-Sight
TTITLE3=Swing Thing
TTITLE4=I Found Out
TTITLE5=I Want To Know
TTITLE6=Call My Name
TTITLE7=Meet Me When The Stars Come Out
TTITLE8=Booty Boomerang - (Return)
TTITLE9=A Child Could See It
TTITLE10=Calypso Joe
EXTD=
EXTT0=
EXTT1=
EXTT2=
EXTT3=
EXTT4=
EXTT5=
EXTT6=
EXTT7=
EXTT8=
EXTT9=
EXTT10=
PLAYORDER=
